<svg width="20" height="21" viewBox="0 0 20 21" fill="none" xmlns="http://www.w3.org/2000/svg">
<path d="M5.82312 0.976562C2.71619 0.976562 0.162964 3.52637 0.162964 6.63672V14.5664C0.162964 17.6733 2.71277 20.2266 5.82312 20.2266H13.7528C16.8597 20.2266 19.413 17.6768 19.413 14.5664V6.63672C19.413 3.52979 16.8632 0.976562 13.7528 0.976562H5.82312ZM5.82312 2.72656H13.7528C15.9164 2.72656 17.663 4.47314 17.663 6.63672V14.5664C17.663 16.73 15.9164 18.4766 13.7528 18.4766H5.82312C3.65955 18.4766 1.91296 16.73 1.91296 14.5664V6.63672C1.91296 4.47314 3.65955 2.72656 5.82312 2.72656ZM14.9559 4.64062C14.515 4.64062 14.163 4.99268 14.163 5.43359C14.163 5.87451 14.515 6.22656 14.9559 6.22656C15.3969 6.22656 15.7489 5.87451 15.7489 5.43359C15.7489 4.99268 15.3969 4.64062 14.9559 4.64062ZM9.78796 5.35156C6.89978 5.35156 4.53796 7.71338 4.53796 10.6016C4.53796 13.4897 6.89978 15.8516 9.78796 15.8516C12.6761 15.8516 15.038 13.4897 15.038 10.6016C15.038 7.71338 12.6761 5.35156 9.78796 5.35156ZM9.78796 7.10156C11.7328 7.10156 13.288 8.65674 13.288 10.6016C13.288 12.5464 11.7328 14.1016 9.78796 14.1016C7.84314 14.1016 6.28796 12.5464 6.28796 10.6016C6.28796 8.65674 7.84314 7.10156 9.78796 7.10156Z" fill="#B4B4B4"/>
</svg>
