<svg width="22" height="22" viewBox="0 0 22 22" fill="none" xmlns="http://www.w3.org/2000/svg">
<path d="M4.16292 0.101562C2.40139 0.101562 0.95459 1.54836 0.95459 3.3099V17.8932C0.95459 19.6548 2.40139 21.1016 4.16292 21.1016H18.7463C20.5078 21.1016 21.9546 19.6548 21.9546 17.8932V3.3099C21.9546 1.54836 20.5078 0.101562 18.7463 0.101562H4.16292ZM4.16292 1.85156H18.7463C19.5619 1.85156 20.2046 2.49426 20.2046 3.3099V17.8932C20.2046 18.7089 19.5619 19.3516 18.7463 19.3516H14.9546V13.5182H17.0692C17.3632 13.5182 17.6118 13.2983 17.6479 13.0067L17.8667 11.2567C17.8877 11.091 17.8351 10.9247 17.7243 10.7987C17.614 10.6732 17.4553 10.6016 17.2879 10.6016H14.9546V8.5599C14.9546 7.91648 15.4778 7.39323 16.1213 7.39323H17.2879C17.6099 7.39323 17.8713 7.13248 17.8713 6.8099V4.84115C17.8713 4.53898 17.6407 4.28692 17.3403 4.26009C17.3059 4.25717 16.4829 4.1849 15.4411 4.1849C12.8703 4.1849 11.4546 5.711 11.4546 8.48242V10.6016H9.12126C8.79926 10.6016 8.53792 10.8623 8.53792 11.1849V12.9349C8.53792 13.2575 8.79926 13.5182 9.12126 13.5182H11.4546V19.3516H4.16292C3.34729 19.3516 2.70459 18.7089 2.70459 17.8932V3.3099C2.70459 2.49426 3.34729 1.85156 4.16292 1.85156Z" fill="#B4B4B4"/>
</svg>
