<svg width="22" height="22" viewBox="0 0 22 22" fill="none" xmlns="http://www.w3.org/2000/svg">
<path d="M4.16292 0.101562C2.40139 0.101562 0.95459 1.54836 0.95459 3.3099V17.8932C0.95459 19.6548 2.40139 21.1016 4.16292 21.1016H18.7463C20.5078 21.1016 21.9546 19.6548 21.9546 17.8932V3.3099C21.9546 1.54836 20.5078 0.101562 18.7463 0.101562H4.16292ZM4.16292 1.85156H18.7463C19.5619 1.85156 20.2046 2.49426 20.2046 3.3099V17.8932C20.2046 18.7089 19.5619 19.3516 18.7463 19.3516H4.16292C3.34729 19.3516 2.70459 18.7089 2.70459 17.8932V3.3099C2.70459 2.49426 3.34729 1.85156 4.16292 1.85156ZM12.8753 4.19857C12.6522 4.20816 12.4412 4.30271 12.2855 4.46284C12.1298 4.62298 12.0412 4.83658 12.0379 5.0599V12.9349C12.0379 14.2343 11.004 15.2682 9.70459 15.2682C8.40516 15.2682 7.37126 14.2343 7.37126 12.9349C7.37126 11.6355 8.40516 10.6016 9.70459 10.6016C9.82054 10.6032 9.93565 10.5818 10.0433 10.5385C10.1508 10.4953 10.2488 10.4311 10.3314 10.3497C10.4139 10.2683 10.4795 10.1713 10.5243 10.0643C10.569 9.95733 10.5921 9.84252 10.5921 9.72656C10.5921 9.6106 10.569 9.4958 10.5243 9.38882C10.4795 9.28185 10.4139 9.18484 10.3314 9.10342C10.2488 9.02201 10.1508 8.95782 10.0433 8.91458C9.93565 8.87134 9.82054 8.84992 9.70459 8.85156C7.45969 8.85156 5.62126 10.69 5.62126 12.9349C5.62126 15.1798 7.45969 17.0182 9.70459 17.0182C11.9495 17.0182 13.7879 15.1798 13.7879 12.9349V8.46419C14.5277 9.03647 15.411 9.4349 16.4129 9.4349C16.5289 9.43653 16.644 9.41511 16.7516 9.37188C16.8592 9.32864 16.9571 9.26445 17.0397 9.18303C17.1223 9.10162 17.1878 9.00461 17.2326 8.89763C17.2773 8.79066 17.3004 8.67585 17.3004 8.5599C17.3004 8.44394 17.2773 8.32913 17.2326 8.22216C17.1878 8.11518 17.1223 8.01817 17.0397 7.93676C16.9571 7.85534 16.8592 7.79115 16.7516 7.74791C16.644 7.70468 16.5289 7.68326 16.4129 7.6849C14.9525 7.6849 13.7879 6.52027 13.7879 5.0599C13.7862 4.94291 13.761 4.82747 13.7139 4.72038C13.6668 4.6133 13.5987 4.51675 13.5136 4.43645C13.4285 4.35615 13.3282 4.29372 13.2185 4.25286C13.1089 4.212 12.9922 4.19354 12.8753 4.19857Z" fill="#B4B4B4"/>
</svg>
