<svg width="26" height="20" viewBox="0 0 26 20" fill="none" xmlns="http://www.w3.org/2000/svg">
<path d="M13.0381 0.559814C9.33238 0.559814 5.88933 0.823845 3.92468 1.23429C3.9205 1.2354 3.91632 1.23654 3.91215 1.23771C2.43199 1.56939 1.03824 2.62962 0.744832 4.28996C0.744444 4.29223 0.744064 4.29451 0.743693 4.29679C0.518285 5.63497 0.287964 7.37939 0.287964 9.89315C0.287964 12.4022 0.519075 14.1003 0.804077 15.5089C1.10467 17.1202 2.46626 18.2125 3.96912 18.5486C3.97631 18.5506 3.98352 18.5525 3.99076 18.5543C6.04121 18.9583 9.38707 19.2265 13.0928 19.2265C16.7986 19.2265 20.1462 18.9583 22.1971 18.5543C22.2044 18.5525 22.2116 18.5506 22.2188 18.5486C23.6989 18.2169 25.0927 17.1567 25.3861 15.4963C25.3869 15.4922 25.3877 15.488 25.3884 15.4838C25.6103 14.1183 25.8979 12.3756 25.9546 9.85783C25.9547 9.85137 25.9547 9.84492 25.9546 9.83846C25.9546 7.3193 25.6663 5.56404 25.385 4.17375C25.0867 2.55894 23.7236 1.46368 22.2188 1.1272C22.1958 1.12209 22.1726 1.11791 22.1493 1.11466C20.1484 0.833369 16.7444 0.559814 13.0381 0.559814ZM13.0381 2.30981C16.6317 2.30981 19.9616 2.57894 21.8519 2.84188C22.781 3.05545 23.5192 3.70436 23.6646 4.49162C23.6653 4.49656 23.6661 4.5015 23.6669 4.50643C23.9383 5.84603 24.2024 7.43885 24.2035 9.82593C24.149 12.2207 23.8843 13.8275 23.6623 15.1933C23.5107 16.0441 22.8 16.6216 21.844 16.8385C20.0077 17.1987 16.7042 17.4765 13.0928 17.4765C9.48086 17.4765 6.17825 17.1976 4.34281 16.8373C3.41026 16.6255 2.66909 15.9746 2.52332 15.1853C2.52222 15.1804 2.52108 15.1754 2.5199 15.1705C2.25148 13.8459 2.03796 12.3016 2.03796 9.89315C2.03796 7.48905 2.25113 5.88097 2.46749 4.5953C2.61824 3.74224 3.33089 3.16334 4.28927 2.9467C5.98962 2.59228 9.42294 2.30981 13.0381 2.30981ZM11.0568 4.94849C10.0112 4.98242 9.03796 5.8246 9.03796 6.96851V12.2356C9.03796 13.7608 10.7684 14.7499 12.0936 14.0015V14.0004L16.7546 11.3674C18.0894 10.6133 18.0894 8.58964 16.7546 7.83553L12.0936 5.20256C11.7623 5.01547 11.4054 4.93717 11.0568 4.94849ZM11.0637 6.67342C11.1163 6.67627 11.1736 6.69271 11.2323 6.72583L15.8933 9.35994C16.13 9.49366 16.13 9.71044 15.8933 9.84416L11.2323 12.4771C10.9977 12.6096 10.788 12.4861 10.788 12.2356V6.96851C10.788 6.84328 10.8405 6.74994 10.9224 6.70418C10.9633 6.68131 11.0111 6.67057 11.0637 6.67342Z" fill="#B4B4B4"/>
</svg>
