<svg width="30" height="36" viewBox="0 0 30 36" fill="none" xmlns="http://www.w3.org/2000/svg">
<path fill-rule="evenodd" clip-rule="evenodd" d="M20.8813 16.8963C23.3147 16.2313 28.2456 15.5495 28.1288 19.4237C28.0542 21.8889 26.0471 24.7724 23.515 25.2099C20.3414 25.7581 19.0242 22.3899 18.7983 19.841C18.7329 19.1072 18.7277 18.3651 18.7645 17.6202C19.4557 17.3393 20.1609 17.0932 20.8813 16.8963ZM23.8815 0.0873268C20.534 4.69975 17.9952 10.4698 17.3698 16.2562C16.181 16.813 15.097 17.4305 14.2123 18.0007C9.07347 21.3138 4.44044 26.7305 2.11051 32.4037C1.8561 33.0238 2.47238 33.5514 3.02019 33.4938C2.71993 33.5613 2.41876 33.6251 2.11666 33.6852C1.99157 32.8913 1.99501 32.103 2.13213 31.2791C2.21609 30.7756 2.44974 30.2656 2.49365 29.7646C2.51988 29.4662 2.32339 29.3824 2.39623 29.0611C2.41948 28.9587 2.3082 28.8505 2.21381 28.9339C1.95557 29.1623 1.66518 29.1397 1.41648 29.379C1.02453 29.7559 0.740907 30.6587 0.60062 31.157C0.251229 32.3978 0.249694 33.6904 0.477739 34.9514C0.573157 35.4781 1.06894 35.7503 1.56984 35.6986C2.79783 35.5722 4.00797 35.2715 5.18218 34.8971C6.19942 34.5725 7.37606 34.2694 8.17166 33.5342C8.79576 32.958 8.31917 31.9494 7.47696 32.0655C6.44921 32.2069 5.49285 32.7898 4.50164 33.1033C4.07669 33.2377 3.64819 33.3466 3.21788 33.447C3.34861 33.3935 3.46768 33.2995 3.55941 33.1548C6.52299 28.4777 9.21377 23.9529 13.71 20.5341C14.814 19.6939 15.995 18.9451 17.2358 18.317C17.2324 18.4441 17.2235 18.5723 17.2218 18.7C17.1752 22.8993 19.661 28.5577 24.8439 26.6091C28.5228 25.2266 32.1685 18.8167 28.277 15.766C25.7907 13.8168 22.1706 14.3492 18.9638 15.5784C19.2168 13.7967 19.6515 12.0268 20.085 10.3426C20.9881 6.83147 22.3994 3.43256 24.0702 0.220136C24.1363 0.0927042 23.9715 -0.0368033 23.8815 0.0873268Z" fill="#B4B4B4"/>
</svg>
